<svg width="18" height="25" viewBox="0 0 18 25" fill="none" xmlns="http://www.w3.org/2000/svg">
<path d="M15.75 12.75C15.75 18 9 22.5 9 22.5C9 22.5 2.25 18 2.25 12.75C2.25 10.9598 2.96116 9.2429 4.22703 7.97703C5.4929 6.71116 7.20979 6 9 6C10.7902 6 12.5071 6.71116 13.773 7.97703C15.0388 9.2429 15.75 10.9598 15.75 12.75Z" stroke="#3AA9E9" stroke-width="1.5" stroke-linecap="round" stroke-linejoin="round"/>
<path d="M9 13.75C10.2426 13.75 11.25 12.7426 11.25 11.5C11.25 10.2574 10.2426 9.25 9 9.25C7.75736 9.25 6.75 10.2574 6.75 11.5C6.75 12.7426 7.75736 13.75 9 13.75Z" stroke="#3AA9E9" stroke-width="1.5" stroke-linecap="round" stroke-linejoin="round"/>
</svg>
